<?xml version="1.0" ?><svg enable-background="new 0 0 40 40" id="Слой_1" version="1.1" viewBox="0 0 40 40" xml:space="preserve" xmlns="http://www.w3.org/2000/svg" xmlns:xlink="http://www.w3.org/1999/xlink"><g><path d="M36.3,7H19.7C18.8,7,18,6.3,18,5.3V3.7c0-2-1.7-3.7-3.7-3.7H3.7C1.7,0,0,1.6,0,3.7v32.7   c0,2,1.7,3.7,3.7,3.7h32.7c2,0,3.7-1.6,3.7-3.7V10.7C40,8.6,38.3,7,36.3,7z M38,13.3H5c-0.5,0-1,0.4-1,1c0,0.6,0.5,1,1,1h33v21   c0,0.9-0.8,1.7-1.7,1.7H3.7C2.8,38,2,37.3,2,36.3V3.7C2,2.7,2.8,2,3.7,2h10.7C15.3,2,16,2.7,16,3.7v1.7c0,2,1.7,3.7,3.7,3.7h16.7   c0.9,0,1.7,0.8,1.7,1.7V13.3z" fill="#010202"/></g><g><path d="M34.8,28H28c-0.6,0-1-0.4-1-1s0.4-1,1-1h6.8c0.6,0,1,0.4,1,1S35.3,28,34.8,28z" fill="#010202"/></g><g><path d="M34.8,32H28c-0.6,0-1-0.4-1-1s0.4-1,1-1h6.8c0.6,0,1,0.4,1,1S35.3,32,34.8,32z" fill="#010202"/></g></svg>